<svg xmlns="http://www.w3.org/2000/svg" viewBox="0 0 750 750"><title>Social Square_svg</title><polygon points="0 648 145 648 145 506 287 506 287 360 431 360 431 216 575 216 576 71 750 70 750 750 0 750 0 648" style="fill:#f4f4f5"/><path d="M368.92218,211.14851q40.8642,0,60.00541,22.50234,16.81043,19.65877,16.81219,54.83281v47.07292q0,34.40172-26.12326,58.19545l36.20615,141.47854H402.95809L373.31893,413.15052H340.72968V535.23057H291.8458V211.14851Zm29.22712,78.111q0-28.18873-27.93372-28.1925h-29.4859V364.7837h29.4859a26.71773,26.71773,0,0,0,19.7864-8.27645,27.36785,27.36785,0,0,0,8.14731-19.916Z"/><path d="M126.31073,260.29117H74.323V211.14851H226.92357v49.14266h-51.729v274.9394H126.31073Z"/><path d="M598.08357,538.85149q-32.335,0-54.83281-22.50234-22.50184-22.50184-22.50234-54.574V211.14851h47.84976v250.11a26.71662,26.71662,0,0,0,8.27645,19.7859,27.36391,27.36391,0,0,0,19.91554,8.14731,27.8175,27.8175,0,0,0,27.93372-27.93321v-250.11H675.677v250.6266q0,32.58975-22.76112,54.83332Q630.15325,538.85551,598.08357,538.85149Z"/></svg>